{
  "accessors": [
    {
      "bufferView": 2,
      "componentType": 5126,
      "count": 1922,
      "max": [
        0.051919370889663696,
        0.051919370889663696,
        0.30824822187423706
      ],
      "min": [
        -0.051919370889663696,
        -0.051919370889663696,
        0.0
      ],
      "type": "VEC3"
    },
    {
      "bufferView": 2,
      "byteOffset": 23064,
      "componentType": 5126,
      "count": 1922,
      "type": "VEC3"
    },
    {
      "bufferView": 3,
      "componentType": 5126,
      "count": 1922,
      "type": "VEC4"
    },
    {
      "bufferView": 1,
      "componentType": 5126,
      "count": 1922,
      "type": "VEC2"
    },
    {
      "bufferView": 1,
      "byteOffset": 15376,
      "componentType": 5126,
      "count": 1922,
      "type": "VEC2"
    },
    {
      "bufferView": 1,
      "byteOffset": 30752,
      "componentType": 5126,
      "count": 1922,
      "type": "VEC2"
    },
    {
      "bufferView": 0,
      "componentType": 5125,
      "count": 9828,
      "type": "SCALAR"
    },
    {
      "bufferView": 2,
      "byteOffset": 46128,
      "componentType": 5126,
      "count": 348,
      "max": [
        0.019444892182946205,
        0.019444800913333893,
        0.01842658780515194
      ],
      "min": [
        -0.019444892182946205,
        -0.019444985315203667,
        -4.6178278978459275e-08
      ],
      "type": "VEC3"
    },
    {
      "bufferView": 2,
      "byteOffset": 50304,
      "componentType": 5126,
      "count": 348,
      "type": "VEC3"
    },
    {
      "bufferView": 3,
      "byteOffset": 30752,
      "componentType": 5126,
      "count": 348,
      "type": "VEC4"
    },
    {
      "bufferView": 1,
      "byteOffset": 46128,
      "componentType": 5126,
      "count": 348,
      "type": "VEC2"
    },
    {
      "bufferView": 1,
      "byteOffset": 48912,
      "componentType": 5126,
      "count": 348,
      "type": "VEC2"
    },
    {
      "bufferView": 1,
      "byteOffset": 51696,
      "componentType": 5126,
      "count": 348,
      "type": "VEC2"
    },
    {
      "bufferView": 0,
      "byteOffset": 39312,
      "componentType": 5125,
      "count": 1764,
      "type": "SCALAR"
    },
    {
      "bufferView": 2,
      "byteOffset": 54480,
      "componentType": 5126,
      "count": 839,
      "max": [
        0.04869430512189865,
        0.048830848187208176,
        0.3076974153518677
      ],
      "min": [
        -0.04869430884718895,
        -0.04828545078635216,
        0.0
      ],
      "type": "VEC3"
    },
    {
      "bufferView": 2,
      "byteOffset": 64548,
      "componentType": 5126,
      "count": 839,
      "type": "VEC3"
    },
    {
      "bufferView": 3,
      "byteOffset": 36320,
      "componentType": 5126,
      "count": 839,
      "type": "VEC4"
    },
    {
      "bufferView": 1,
      "byteOffset": 54480,
      "componentType": 5126,
      "count": 839,
      "type": "VEC2"
    },
    {
      "bufferView": 1,
      "byteOffset": 61192,
      "componentType": 5126,
      "count": 839,
      "type": "VEC2"
    },
    {
      "bufferView": 1,
      "byteOffset": 67904,
      "componentType": 5126,
      "count": 839,
      "type": "VEC2"
    },
    {
      "bufferView": 0,
      "byteOffset": 46368,
      "componentType": 5125,
      "count": 4221,
      "type": "SCALAR"
    },
    {
      "bufferView": 2,
      "byteOffset": 74616,
      "componentType": 5126,
      "count": 220,
      "max": [
        0.01700902357697487,
        0.017056716606020927,
        0.015299360267817974
      ],
      "min": [
        -0.01700902357697487,
        -0.016866208985447884,
        0.0
      ],
      "type": "VEC3"
    },
    {
      "bufferView": 2,
      "byteOffset": 77256,
      "componentType": 5126,
      "count": 220,
      "type": "VEC3"
    },
    {
      "bufferView": 3,
      "byteOffset": 49744,
      "componentType": 5126,
      "count": 220,
      "type": "VEC4"
    },
    {
      "bufferView": 1,
      "byteOffset": 74616,
      "componentType": 5126,
      "count": 220,
      "type": "VEC2"
    },
    {
      "bufferView": 1,
      "byteOffset": 76376,
      "componentType": 5126,
      "count": 220,
      "type": "VEC2"
    },
    {
      "bufferView": 1,
      "byteOffset": 78136,
      "componentType": 5126,
      "count": 220,
      "type": "VEC2"
    },
    {
      "bufferView": 0,
      "byteOffset": 63252,
      "componentType": 5125,
      "count": 1071,
      "type": "SCALAR"
    }
  ],
  "asset": {
    "generator": "fab-model-conversion",
    "version": "2.0"
  },
  "bufferViews": [
    {
      "buffer": 0,
      "byteLength": 67536,
      "target": 34963
    },
    {
      "buffer": 0,
      "byteLength": 79896,
      "byteOffset": 67536,
      "byteStride": 8,
      "target": 34962
    },
    {
      "buffer": 0,
      "byteLength": 79896,
      "byteOffset": 147432,
      "byteStride": 12,
      "target": 34962
    },
    {
      "buffer": 0,
      "byteLength": 53264,
      "byteOffset": 227328,
      "byteStride": 16,
      "target": 34962
    }
  ],
  "buffers": [
    {
      "byteLength": 280592,
      "uri": "scene.bin"
    }
  ],
  "images": [
    {
      "uri": "textures/T_Water_bottle_small_baseColor.png"
    },
    {
      "uri": "textures/T_Water_bottle_small_metallicRoughness.png"
    },
    {
      "uri": "textures/T_Water_bottle_small_normal.png"
    },
    {
      "uri": "textures/T_Water_bottle_large_baseColor.png"
    },
    {
      "uri": "textures/T_Water_bottle_large_metallicRoughness.png"
    },
    {
      "uri": "textures/T_Water_bottle_large_normal.png"
    }
  ],
  "materials": [
    {
      "alphaMode": "BLEND",
      "doubleSided": true,
      "name": "T_Water_bottle_small",
      "normalTexture": {
        "index": 2,
        "texCoord": 1
      },
      "pbrMetallicRoughness": {
        "baseColorTexture": {
          "index": 0
        },
        "metallicRoughnessTexture": {
          "index": 1
        }
      }
    },
    {
      "alphaMode": "BLEND",
      "doubleSided": true,
      "name": "T_Water_bottle_large",
      "normalTexture": {
        "index": 5,
        "texCoord": 1
      },
      "pbrMetallicRoughness": {
        "baseColorTexture": {
          "index": 3
        },
        "metallicRoughnessTexture": {
          "index": 4
        }
      }
    }
  ],
  "meshes": [
    {
      "name": "SM_Water_bottle_1_T_Water_bottle_small_0",
      "primitives": [
        {
          "attributes": {
            "NORMAL": 1,
            "POSITION": 0,
            "TANGENT": 2,
            "TEXCOORD_0": 3,
            "TEXCOORD_1": 4,
            "TEXCOORD_2": 5
          },
          "indices": 6,
          "material": 0,
          "mode": 4
        }
      ]
    },
    {
      "name": "SM_Water_bottle_1_cap_T_Water_bottle_small_0",
      "primitives": [
        {
          "attributes": {
            "NORMAL": 8,
            "POSITION": 7,
            "TANGENT": 9,
            "TEXCOORD_0": 10,
            "TEXCOORD_1": 11,
            "TEXCOORD_2": 12
          },
          "indices": 13,
          "material": 0,
          "mode": 4
        }
      ]
    },
    {
      "name": "SM_Water_bottle_2_T_Water_bottle_large_0",
      "primitives": [
        {
          "attributes": {
            "NORMAL": 15,
            "POSITION": 14,
            "TANGENT": 16,
            "TEXCOORD_0": 17,
            "TEXCOORD_1": 18,
            "TEXCOORD_2": 19
          },
          "indices": 20,
          "material": 1,
          "mode": 4
        }
      ]
    },
    {
      "name": "SM_Water_bottle_2_cap_T_Water_bottle_large_0",
      "primitives": [
        {
          "attributes": {
            "NORMAL": 22,
            "POSITION": 21,
            "TANGENT": 23,
            "TEXCOORD_0": 24,
            "TEXCOORD_1": 25,
            "TEXCOORD_2": 26
          },
          "indices": 27,
          "material": 1,
          "mode": 4
        }
      ]
    }
  ],
  "nodes": [
    {
      "children": [
        1
      ],
      "matrix": [
        1.0,
        0.0,
        0.0,
        0.0,
        0.0,
        2.220446049250313e-16,
        -1.0,
        0.0,
        0.0,
        1.0,
        2.220446049250313e-16,
        0.0,
        0.0,
        0.0,
        0.0,
        1.0
      ],
      "name": "Sketchfab_model"
    },
    {
      "children": [
        2
      ],
      "matrix": [
        0.009999999776482582,
        0.0,
        0.0,
        0.0,
        0.0,
        0.0,
        0.009999999776482582,
        0.0,
        0.0,
        -0.009999999776482582,
        0.0,
        0.0,
        0.0,
        0.0,
        0.0,
        1.0
      ],
      "name": "22d31c78c4064462be7e6cc676c5d3c7.fbx"
    },
    {
      "children": [
        3,
        7
      ],
      "name": "RootNode"
    },
    {
      "children": [
        4,
        5
      ],
      "matrix": [
        100.0,
        0.0,
        0.0,
        0.0,
        0.0,
        -1.629206793918314e-05,
        -99.99999999999868,
        0.0,
        0.0,
        99.99999999999868,
        -1.629206793918314e-05,
        0.0,
        0.0,
        0.0,
        -22.63915252685547,
        1.0
      ],
      "name": "SM_Water_bottle_1"
    },
    {
      "mesh": 0,
      "name": "SM_Water_bottle_1_T_Water_bottle_small_0"
    },
    {
      "children": [
        6
      ],
      "matrix": [
        1.0,
        0.0,
        0.0,
        0.0,
        0.0,
        1.0,
        -2.646977960169688e-23,
        0.0,
        0.0,
        2.646977960169688e-23,
        1.0,
        0.0,
        7.669042484392818e-11,
        8.940696716308594e-08,
        0.2973679006099701,
        1.0
      ],
      "name": "SM_Water_bottle_1_cap"
    },
    {
      "mesh": 1,
      "name": "SM_Water_bottle_1_cap_T_Water_bottle_small_0"
    },
    {
      "children": [
        8,
        9
      ],
      "matrix": [
        100.0,
        0.0,
        0.0,
        0.0,
        0.0,
        -1.629206793918314e-05,
        -99.99999999999868,
        0.0,
        0.0,
        99.99999999999868,
        -1.629206793918314e-05,
        0.0,
        0.0,
        0.0,
        0.0,
        1.0
      ],
      "name": "SM_Water_bottle_2"
    },
    {
      "mesh": 2,
      "name": "SM_Water_bottle_2_T_Water_bottle_large_0"
    },
    {
      "children": [
        10
      ],
      "matrix": [
        1.0,
        0.0,
        0.0,
        0.0,
        0.0,
        1.0,
        -2.646977960169688e-23,
        0.0,
        0.0,
        2.646977960169688e-23,
        1.0,
        0.0,
        7.791700618042796e-11,
        -1.0388936239058566e-10,
        0.29901424050331116,
        1.0
      ],
      "name": "SM_Water_bottle_2_cap"
    },
    {
      "mesh": 3,
      "name": "SM_Water_bottle_2_cap_T_Water_bottle_large_0"
    }
  ],
  "samplers": [
    {
      "magFilter": 9729,
      "minFilter": 9987,
      "wrapS": 10497,
      "wrapT": 10497
    }
  ],
  "scene": 0,
  "scenes": [
    {
      "name": "Sketchfab_Scene",
      "nodes": [
        0
      ]
    }
  ],
  "textures": [
    {
      "sampler": 0,
      "source": 0
    },
    {
      "sampler": 0,
      "source": 1
    },
    {
      "sampler": 0,
      "source": 2
    },
    {
      "sampler": 0,
      "source": 3
    },
    {
      "sampler": 0,
      "source": 4
    },
    {
      "sampler": 0,
      "source": 5
    }
  ]
}
